<svg width="22" height="22" viewBox="0 0 22 22" fill="none" xmlns="http://www.w3.org/2000/svg">
<path d="M11 13.75C12.5188 13.75 13.75 12.5188 13.75 11C13.75 9.48122 12.5188 8.25 11 8.25C9.48122 8.25 8.25 9.48122 8.25 11C8.25 12.5188 9.48122 13.75 11 13.75Z" fill="currentColor"/>
<path fill-rule="evenodd" clip-rule="evenodd" d="M12.0312 18.2614C15.2561 17.8075 17.8075 15.2561 18.2614 12.0312H20.9688V9.96875H18.2614C17.8075 6.74388 15.2561 4.19247 12.0312 3.73861V1.03125H9.96875V3.73861C6.74388 4.19247 4.19247 6.74388 3.73861 9.96875H1.03125V12.0312H3.73861C4.19247 15.2561 6.74388 17.8075 9.96875 18.2614V20.9688H12.0312V18.2614ZM11 16.5C14.0376 16.5 16.5 14.0376 16.5 11C16.5 7.96243 14.0376 5.5 11 5.5C7.96243 5.5 5.5 7.96243 5.5 11C5.5 14.0376 7.96243 16.5 11 16.5Z" fill="currentColor"/>
</svg>
