<svg width="16" height="18" viewBox="0 0 16 18" fill="none" xmlns="http://www.w3.org/2000/svg">
<path fill-rule="evenodd" clip-rule="evenodd" d="M5.2426 0.726562C4.48112 0.726562 3.86381 1.34387 3.86381 2.10535V3.48491H0.416748V4.86369H1.79554V15.894C1.79554 16.2597 1.9408 16.6104 2.19937 16.8689C2.45795 17.1275 2.80865 17.2728 3.17432 17.2728H12.8258C13.1915 17.2728 13.5422 17.1275 13.8008 16.8689C14.0594 16.6104 14.2046 16.2597 14.2046 15.894V4.86369H15.5834V3.48491H12.1365V2.10535C12.1365 1.34387 11.5192 0.726562 10.7578 0.726562H5.2426ZM10.7578 3.48491V2.10535H5.2426V3.48491H10.7578ZM3.17432 4.86369V15.894H12.8258V4.86369H3.17432ZM5.9319 6.24094H4.55311V14.5137H5.9319V6.24094ZM8.68938 6.24094H7.31059V14.5137H8.68938V6.24094ZM11.4471 14.5137V6.24094H10.0684V14.5137H11.4471Z" fill="currentColor"/>
</svg>
