<svg width="18" height="16" viewBox="0 0 18 16" fill="none" xmlns="http://www.w3.org/2000/svg">
  <path d="M5.4 8.88889C3.726 8.88889 2.331 10.0267 1.926 11.5556H0V13.3333H1.926C2.331 14.8622 3.726 16 5.4 16C7.074 16 8.469 14.8622 8.874 13.3333H18V11.5556H8.874C8.469 10.0267 7.074 8.88889 5.4 8.88889ZM5.4 14.2222C4.41 14.2222 3.6 13.4222 3.6 12.4444C3.6 11.4667 4.41 10.6667 5.4 10.6667C6.39 10.6667 7.2 11.4667 7.2 12.4444C7.2 13.4222 6.39 14.2222 5.4 14.2222ZM16.074 2.66667C15.669 1.13778 14.274 0 12.6 0C10.926 0 9.531 1.13778 9.126 2.66667H0V4.44444H9.126C9.531 5.97333 10.926 7.11111 12.6 7.11111C14.274 7.11111 15.669 5.97333 16.074 4.44444H18V2.66667H16.074ZM12.6 5.33333C11.61 5.33333 10.8 4.53333 10.8 3.55556C10.8 2.57778 11.61 1.77778 12.6 1.77778C13.59 1.77778 14.4 2.57778 14.4 3.55556C14.4 4.53333 13.59 5.33333 12.6 5.33333Z" fill="currentColor"/>
</svg>

