<svg width="18" height="18" viewBox="0 0 18 18" fill="none" xmlns="http://www.w3.org/2000/svg">
<path d="M6.00005 0.00185668L0.000779316 2.00186L0 18.0019L6.00005 15.9019L12.0001 18.0019L18 16C18 10.626 18 0 18 0L12.0001 2.10186L6.00005 0.00185668ZM5.00005 2.45186V14.1519L2.00005 15.3119V3.46186L5.00005 2.45186ZM7.00005 2.47186L11.0001 3.87186V15.5319L7.00005 14.1319V2.47186ZM16.0001 2.70186V14.5419L13.0001 15.5519V3.86186L16.0001 2.70186ZM4.46005 3.30186L2.57005 3.97186V6.12186L4.46005 5.45186V3.30186ZM4.46005 6.05186L2.57005 6.72186V8.87186L4.46005 8.20186V6.05186ZM4.46005 8.80186L2.57005 9.47186V11.6219L4.46005 10.9519V8.80186ZM4.46005 11.5519L2.57005 12.2219V14.3719L4.46005 13.7019V11.5519Z" fill="currentColor"/>
</svg>
