<svg width="26" height="25" viewBox="0 0 26 25" fill="none" xmlns="http://www.w3.org/2000/svg">
<path d="M6.25005 7.00186L0.250779 9.00186L0.25 25.0019L6.25005 22.9019L12.2501 25.0019L18.25 23C18.25 17.626 18.25 7 18.25 7L12.2501 9.10186L6.25005 7.00186ZM5.25005 9.45186V21.1519L2.25005 22.3119V10.4619L5.25005 9.45186ZM7.25005 9.47186L11.2501 10.8719V22.5319L7.25005 21.1319V9.47186ZM16.2501 9.70186V21.5419L13.2501 22.5519V10.8619L16.2501 9.70186Z" fill="currentColor"/>
<line x1="9.25" y1="8" x2="25.25" y2="8" stroke="#002547" stroke-width="6"/>
<line x1="17.25" y1="1.31134e-07" x2="17.25" y2="16" stroke="#002547" stroke-width="6"/>
<line x1="17.25" y1="2" x2="17.25" y2="14" stroke="currentColor" stroke-width="2"/>
<line x1="11.25" y1="8" x2="23.25" y2="8" stroke="currentColor" stroke-width="2"/>
</svg>
