<svg width="16" height="20" viewBox="0 0 16 20" fill="none" xmlns="http://www.w3.org/2000/svg">
<path d="M16 15.7791V16.668H0V15.7791L1.77778 14.0013V8.66797C1.77778 5.91241 3.58222 3.48575 6.22222 2.70352C6.22222 2.61464 6.22222 2.53464 6.22222 2.44575C6.22222 1.97425 6.40952 1.52207 6.74292 1.18867C7.07632 0.85527 7.5285 0.667969 8 0.667969C8.4715 0.667969 8.92368 0.85527 9.25708 1.18867C9.59048 1.52207 9.77778 1.97425 9.77778 2.44575C9.77778 2.53464 9.77778 2.61464 9.77778 2.70352C12.4178 3.48575 14.2222 5.91241 14.2222 8.66797V14.0013L16 15.7791ZM9.77778 17.5569C9.77778 18.0284 9.59048 18.4805 9.25708 18.8139C8.92368 19.1473 8.4715 19.3346 8 19.3346C7.5285 19.3346 7.07632 19.1473 6.74292 18.8139C6.40952 18.4805 6.22222 18.0284 6.22222 17.5569" fill="currentColor"/>
</svg>
