<svg width="18" height="18" viewBox="0 0 18 18" fill="none" xmlns="http://www.w3.org/2000/svg">
<g clip-path="url(#clip0_1275_66728)">
<path fill-rule="evenodd" clip-rule="evenodd" d="M0.5625 6.75C0.5625 3.33337 3.33337 0.5625 6.75 0.5625C10.1666 0.5625 12.9375 3.33337 12.9375 6.75C12.9375 10.1666 10.1666 12.9375 6.75 12.9375C3.33337 12.9375 0.5625 10.1666 0.5625 6.75ZM12.9375 11.4375L11.25 13.125L15.75 17.4369L17.4375 15.7494L12.9375 11.4375ZM6.75 11.25C4.269 11.25 2.25 9.231 2.25 6.75C2.25 4.269 4.269 2.25 6.75 2.25C9.231 2.25 11.25 4.269 11.25 6.75C11.25 9.231 9.231 11.25 6.75 11.25Z" fill="currentColor" fill-opacity="0.4"/>
</g>
<defs>
<clipPath id="clip0_1275_66728">
<rect width="18" height="18" fill="white"/>
</clipPath>
</defs>
</svg>
