<svg width="58" height="70" viewBox="0 0 58 70" fill="none" xmlns="http://www.w3.org/2000/svg">
<g filter="url(#filter0_d_1918_81374)">
<path d="M29 14C25.5522 14 22.2456 15.3696 19.8076 17.8076C17.3696 20.2456 16 23.5522 16 27C16 36.75 29 51.1429 29 51.1429C29 51.1429 42 36.75 42 27C42 23.5522 40.6304 20.2456 38.1924 17.8076C35.7544 15.3696 32.4478 14 29 14Z" fill="#009EE0"/>
</g>
<path fill-rule="evenodd" clip-rule="evenodd" d="M26.7737 53.1537L29 51.1429L31.2263 53.1537L29 55.6186L26.7737 53.1537ZM30.9595 48.83C34.5908 44.3675 42 34.3607 42 27C42 23.5522 40.6304 20.2456 38.1924 17.8076C35.7544 15.3696 32.4478 14 29 14C25.5522 14 22.2456 15.3696 19.8076 17.8076C17.3696 20.2456 16 23.5522 16 27C16 34.3607 23.4092 44.3675 27.0405 48.83C28.2193 50.2785 29 51.1429 29 51.1429C26.7737 53.1537 26.7733 53.1533 26.7729 53.1528L26.7718 53.1516L26.7589 53.1373L26.7256 53.1001C26.6973 53.0684 26.657 53.0232 26.6055 52.9649C26.5026 52.8483 26.3548 52.6797 26.1686 52.4635C25.7963 52.0314 25.2694 51.4084 24.6394 50.6321C23.382 49.0828 21.7005 46.9066 20.0131 44.4056C18.3315 41.9131 16.6068 39.0438 15.2934 36.1121C13.9977 33.2198 13 30.0445 13 27C13 22.7565 14.6857 18.6869 17.6863 15.6863C20.6869 12.6857 24.7565 11 29 11C33.2435 11 37.3131 12.6857 40.3137 15.6863C43.3143 18.6869 45 22.7565 45 27C45 30.0445 44.0023 33.2198 42.7066 36.1121C41.3932 39.0438 39.6685 41.9131 37.9869 44.4056C36.2995 46.9066 34.618 49.0828 33.3606 50.6321C32.7306 51.4084 32.2037 52.0314 31.8314 52.4635C31.6452 52.6797 31.4974 52.8483 31.3945 52.9649C31.343 53.0232 31.3027 53.0684 31.2744 53.1001L31.2411 53.1373L31.2282 53.1516L31.2271 53.1528C31.2267 53.1533 31.2263 53.1537 29 51.1429C29 51.1429 29.7807 50.2785 30.9595 48.83Z" fill="white"/>
<path d="M28.5 21C28.898 21.0001 29.2796 21.1583 29.5609 21.4398C29.8422 21.7213 30.0001 22.103 30 22.501C29.9999 22.899 29.8417 23.2806 29.5602 23.5619C29.2787 23.8432 28.897 24.0011 28.499 24.001C28.101 24.0009 27.7194 23.8427 27.4381 23.5612C27.1568 23.2797 26.9989 22.898 26.999 22.5C26.9991 22.102 27.1573 21.7204 27.4388 21.4391C27.7203 21.1578 28.102 20.9999 28.5 21ZM32 33H26V31H28V27H26V25H30V31H32V33Z" fill="white"/>
<defs>
<filter id="filter0_d_1918_81374" x="0" y="0" width="58" height="69.1429" filterUnits="userSpaceOnUse" color-interpolation-filters="sRGB">
<feFlood flood-opacity="0" result="BackgroundImageFix"/>
<feColorMatrix in="SourceAlpha" type="matrix" values="0 0 0 0 0 0 0 0 0 0 0 0 0 0 0 0 0 0 127 0" result="hardAlpha"/>
<feOffset dy="2"/>
<feGaussianBlur stdDeviation="8"/>
<feComposite in2="hardAlpha" operator="out"/>
<feColorMatrix type="matrix" values="0 0 0 0 0 0 0 0 0 0 0 0 0 0 0 0 0 0 0.2 0"/>
<feBlend mode="normal" in2="BackgroundImageFix" result="effect1_dropShadow_1918_81374"/>
<feBlend mode="normal" in="SourceGraphic" in2="effect1_dropShadow_1918_81374" result="shape"/>
</filter>
</defs>
</svg>
