<svg width="58" height="58" viewBox="0 0 58 58" fill="none" xmlns="http://www.w3.org/2000/svg">
<g filter="url(#filter0_d_1918_81382)">
<circle cx="29" cy="27" r="13" fill="#009EE0"/>
</g>
<path fill-rule="evenodd" clip-rule="evenodd" d="M45 27C45 35.8366 37.8366 43 29 43C20.1634 43 13 35.8366 13 27C13 18.1634 20.1634 11 29 11C37.8366 11 45 18.1634 45 27ZM29 40C36.1797 40 42 34.1797 42 27C42 19.8203 36.1797 14 29 14C21.8203 14 16 19.8203 16 27C16 34.1797 21.8203 40 29 40Z" fill="white"/>
<defs>
<filter id="filter0_d_1918_81382" x="0" y="0" width="58" height="58" filterUnits="userSpaceOnUse" color-interpolation-filters="sRGB">
<feFlood flood-opacity="0" result="BackgroundImageFix"/>
<feColorMatrix in="SourceAlpha" type="matrix" values="0 0 0 0 0 0 0 0 0 0 0 0 0 0 0 0 0 0 127 0" result="hardAlpha"/>
<feOffset dy="2"/>
<feGaussianBlur stdDeviation="8"/>
<feComposite in2="hardAlpha" operator="out"/>
<feColorMatrix type="matrix" values="0 0 0 0 0 0 0 0 0 0 0 0 0 0 0 0 0 0 0.2 0"/>
<feBlend mode="normal" in2="BackgroundImageFix" result="effect1_dropShadow_1918_81382"/>
<feBlend mode="normal" in="SourceGraphic" in2="effect1_dropShadow_1918_81382" result="shape"/>
</filter>
</defs>
</svg>
