<svg fill="none" height="26" viewBox="0 0 26 26" width="26" xmlns="http://www.w3.org/2000/svg"><path clip-rule="evenodd" d="m20.07 3.81241c-1.8903-1.81077-4.429-2.820653-7.07-2.81236-2.641-.008293-5.1797 1.00159-7.07 2.81236-1.81 1.73672-2.93 4.3549-2.93 7.00579 0 2.6509 1.12 4.8327 2.93 6.5684 1.89019 1.811 4.4289 2.8213 7.07 2.8134v4.8l7.07-7.212c1.81-1.8393 2.93-4.164 2.93-6.9698 0-2.65089-1.12-5.26907-2.93-7.00579zm-7.07 13.93499c-.8284 0-1.5-.6716-1.5-1.5 0-.8285.6716-1.5 1.5-1.5s1.5.6715 1.5 1.5c0 .8284-.6716 1.5-1.5 1.5zm-4.00005-9.40748v-.3c0-1.02688.34983-2.03708 1.04615-2.79355.7003-.76078 1.7343-1.24645 3.0619-1.24645 2.0391 0 3.87 1.2975 3.87 3.53 0 1.49138-.7599 2.48848-1.9583 3.36968-.5284.388-.7833.6751-.9177.9612-.1353.2878-.167.6115-.167 1.1261v.013h-1.994v-.064c0-.9406.145-1.6051.4921-2.1748.3404-.5587.8588-.99654 1.5283-1.51344.323-.25041.5481-.48477.6951-.74826.1449-.25992.2255-.56892.2255-.98648 0-.43191-.1567-.80007-.4272-1.08499-.3079-.32167-.8021-.51901-1.3468-.51901-.6587 0-1.1435.24301-1.4674.61519-.3284.37747-.5106.91086-.5106 1.51581v.3z" fill="currentColor" fill-rule="evenodd"/></svg>
