<svg fill="none" height="26" viewBox="0 0 26 26" width="26" xmlns="http://www.w3.org/2000/svg"><path d="m13 3c-5.52182 0-10 4.47818-10 10 0 5.5218 4.47818 10 10 10 5.5218 0 10-4.4782 10-10 0-5.52182-4.4782-10-10-10zm-.4545 4.54545c.3617.00013.7086.14396.9644.39986.2557.2559.3993.60291.3992.96469s-.144.70869-.3999.96443c-.2559.25577-.6029.39937-.9647.39917-.3617-.0001-.7086-.1439-.9644-.39982-.2557-.2559-.3993-.60291-.3992-.96469s.144-.70869.3999-.96442c.2559-.25574.6029-.39934.9647-.39922zm3.1818 10.90905h-5.4546v-1.8181h1.8182v-3.6364h-1.8182v-1.8182h3.6364v5.4546h1.8182z" fill="currentColor"/></svg>
