<svg fill="none" height="26" viewBox="0 0 26 26" width="26" xmlns="http://www.w3.org/2000/svg"><path clip-rule="evenodd" d="m23.7564 13.5625c-.8291-.9788-1.8655-1.5413-3.12-1.6875 0-2.19378-.7419-4.05001-2.2255-5.58002s-3.2836-2.29498-5.4109-2.29498c-1.7236 0-3.27273.52877-4.63637 1.60872-1.36363 1.08002-2.26909 2.46378-2.72726 4.18502-1.36365.31496-2.49819 1.04626-3.36001 2.19376s-1.27636 2.4525-1.27636 3.915c0 1.6988.58909 3.15 1.75636 4.3312 1.17818 1.2038 2.60727 1.7663 4.24364 1.7663h13.0909c1.3636 0 2.52-.495 3.48-1.4737.9491-.9901 1.4291-2.1825 1.4291-3.5888 0-1.2937-.4145-2.4187-1.2436-3.375zm-12.3216-1.5155h-1.2522v.8471c0 .9403-.74295 1.6941-1.66956 1.6941.92661 0 1.66956.7624 1.66956 1.6941v.8471h1.2522v1.6941h-1.2522c-.91825 0-1.66956-.7538-1.66956-1.6941v-.8471c0-.4659-.37565-.847-.83478-.847h-.41739v-1.6941h.41739c.45913 0 .83478-.3812.83478-.8471v-.8471c0-.9317.75131-1.6941 1.66956-1.6941h1.2522zm4.3826 0h-1.2522v-1.6941h1.2522c.9183 0 1.6696.7624 1.6696 1.6941v.8471c0 .4659.3756.8471.8347.8471h.4174v1.6941h-.4174c-.4591 0-.8347.3811-.8347.847v.8471c0 .9403-.7513 1.6941-1.6696 1.6941h-1.2522v-1.6941h1.2522v-.8471c0-.9317.743-1.6941 1.6696-1.6941-.9266 0-1.6696-.7538-1.6696-1.6941z" fill="currentColor" fill-rule="evenodd"/></svg>
