<svg width="22" height="22" viewBox="0 0 22 22" fill="none" xmlns="http://www.w3.org/2000/svg">
<path d="M1 16.9943L2.66824 15.3355L4.0066 16.655L5.00565 15.6654L3.66729 14.3365L5.00565 12.9981L7.33365 15.3355L8.33271 14.3365L6.00471 11.9991L7.33365 10.6701L8.67201 11.9991L9.67106 11L8.33271 9.67106L9.67106 8.33271L11.9991 10.6701L12.9981 9.67106L10.6701 7.33365L11.9991 6.00471L13.328 7.33365L14.3365 6.33459L12.9981 5.00565L14.3365 3.66729L16.655 6.00471L17.6635 5.00565L15.3355 2.66824L16.9943 1L21 5.00565L5.00565 21L1 16.9943Z" fill="currentColor"/>
</svg>
