<svg width="32" height="28" viewBox="0 0 32 28" fill="none" xmlns="http://www.w3.org/2000/svg">
  <g clip-path="url(#clip0_666_8461)">
    <path d="M11.045 10.0223L9.8852 10.6013L7.01187 10.1232L6.04619 12.0512L6.3377 12.6333L2.98199 15.611L2.5899 17.1767L1.51256 17.8937L0.444271 19.4934L0 24L1.41118 25.3617L4.29065 22.4871H5.15128L5.85095 25.281L7.65824 27.0852L12.195 26.1794H14.0728L16.2675 24.5362L16.6785 22.8952L16.9289 22.7078L17.415 24.1637L21.4672 27.0532L24.0775 22.3627L24.9702 22.8974H26.7918L29.4979 23.4377L30.4748 21.4871L30.0155 20.5701L31.5893 20.2559V18.7779L32 17L30.4481 15.4204L28.9454 15.9204L27.0192 15.2794L26.7432 15.0039C26.2964 15.5009 25.7942 15.9479 25.2464 16.3357L25.9401 17.0282L28.9454 18.0282L29.8292 17.7341L29.5893 18.4528V18.6153L27.0534 19.1221L28.0485 21.1088L26.9895 20.8974H25.5234L22.192 18.902V21.6379L20.8072 24.1262L19.106 22.9131L17.9483 19.446L14.911 21.7201L14.5 23.3611L13.4071 24.1794H11.9973L8.31481 24.9147L7.65635 24.2573L6.71218 20.4871H3.46322L2.20636 21.7419L2.3781 20.1989L2.95364 19.337L4.34205 18.413L4.77189 16.6966L8.81344 13.1103L8.45292 12.3905L10.1974 12.6807L11.4929 12.0341C11.2682 11.3944 11.1156 10.7208 11.045 10.0223Z" fill="black"/>
    <path d="M14 1H26V9.13047C26 12.3521 23.3291 15 20 15C16.6709 15 14 12.3521 14 9.13047V1Z" fill="black" stroke="black" stroke-width="2" stroke-miterlimit="10"/>
    <path d="M24 5.66668H21.3333V3H18.6667V5.66668H16V8.33332H18.6667V11H21.3333V8.33332H24V5.66668Z" fill="white"/>
  </g>
  <defs>
    <clipPath id="clip0_666_8461">
      <rect width="32" height="28" fill="white"/>
    </clipPath>
  </defs>
</svg>
