<svg xmlns="http://www.w3.org/2000/svg" width="24" height="32" viewBox="0 0 24 32" fill="none">
  <g clip-path="url(#clip0_2028_100394)">
    <path d="M9.27273 4.41818L10.6364 3L11.5455 3.47273L12.4545 5.36364L13.8182 5.83636L15.6364 4.41818L16.5455 5.83636L15.6364 7.25455L15.1818 8.2L17 9.61818V11.0364L18.3636 11.5091V13.4L19.7273 15.7636L19.2727 17.1818L20.6364 18.1273L22 20.9636L21.0909 21.9091L20.6364 23.8L18.3636 24.7455H16.0909V26.1636L12.9091 27.1091V28.0545L12 29L10.6364 28.0545L9.27273 26.1636L6.54545 26.6364L4.72727 26.1636L3.36364 23.8L3.81818 22.8545L4.27273 21.9091V20.4909L2.90909 17.6545L2 14.3455V11.9818L3.36364 10.5636L5.63636 9.14545L4.72727 7.72727L6.54545 6.30909L8.36364 8.67273L9.72727 7.25455V5.83636L9.27273 4.41818Z" stroke="currentColor" stroke-width="2"/>
    <path d="M9 1H8V2V11.1305C8 15.492 11.602 19 16 19C20.398 19 24 15.492 24 11.1305V2V1H23H9Z" fill="white" stroke="white" stroke-width="2" stroke-miterlimit="10"/>
    <path d="M10 3H22V11.1305C22 14.3521 19.3291 17 16 17C12.6709 17 10 14.3521 10 11.1305V3Z" fill="white" stroke="currentColor" stroke-width="2" stroke-miterlimit="10"/>
    <path d="M21.4139 14.648L10.4188 3.40625H10.0641V13.2428L12.5469 16.7558L16.4484 17.4584L19.9952 16.4045L21.4139 14.648Z" fill="currentColor"/>
  </g>
  <defs>
    <clipPath id="clip0_2028_100394">
      <rect width="24" height="32" fill="white"/>
    </clipPath>
  </defs>
</svg>
