<svg xmlns="http://www.w3.org/2000/svg" width="24" height="32" viewBox="0 0 24 32" fill="none">
  <g clip-path="url(#clip0_2028_100402)">
    <path d="M9.27273 4.41818L10.6364 3L11.5455 3.47273L12.4545 5.36364L13.8182 5.83636L15.6364 4.41818L16.5455 5.83636L15.6364 7.25455L15.1818 8.2L17 9.61818V11.0364L18.3636 11.5091V13.4L19.7273 15.7636L19.2727 17.1818L20.6364 18.1273L22 20.9636L21.0909 21.9091L20.6364 23.8L18.3636 24.7455H16.0909V26.1636L12.9091 27.1091V28.0545L12 29L10.6364 28.0545L9.27273 26.1636L6.54545 26.6364L4.72727 26.1636L3.36364 23.8L3.81818 22.8545L4.27273 21.9091V20.4909L2.90909 17.6545L2 14.3455V11.9818L3.36364 10.5636L5.63636 9.14545L4.72727 7.72727L6.54545 6.30909L8.36364 8.67273L9.72727 7.25455V5.83636L9.27273 4.41818Z" stroke="currentColor" stroke-width="2"/>
    <path d="M9 1H8V2V11.1305C8 15.492 11.602 19 16 19C20.398 19 24 15.492 24 11.1305V2V1H23H9Z" fill="white" stroke="white" stroke-width="2" stroke-miterlimit="10"/>
    <path d="M10 3H22V11.1305C22 14.3521 19.3291 17 16 17C12.6709 17 10 14.3521 10 11.1305V3Z" fill="currentColor" stroke="currentColor" stroke-width="2" stroke-miterlimit="10"/>
    <path d="M14.8082 11.1309V10.926C14.8082 10.4564 14.8438 10.0821 14.9151 9.80313C14.9863 9.52419 15.0918 9.30076 15.2315 9.13283C15.3712 8.96205 15.5425 8.80835 15.7452 8.67173C15.9205 8.55218 16.0767 8.43691 16.2137 8.3259C16.3534 8.2149 16.463 8.09677 16.5425 7.97154C16.6247 7.8463 16.6658 7.70398 16.6658 7.54459C16.6658 7.40228 16.6329 7.27704 16.5671 7.16888C16.5014 7.06072 16.4123 6.97676 16.3 6.91698C16.1877 6.85721 16.063 6.82732 15.926 6.82732C15.7781 6.82732 15.6411 6.8629 15.5151 6.93406C15.3918 7.00522 15.2918 7.10342 15.2151 7.22865C15.1411 7.35389 15.1041 7.49905 15.1041 7.66414H13C13.0055 7.03795 13.1425 6.52989 13.411 6.13994C13.6795 5.74715 14.0356 5.45968 14.4795 5.27751C14.9233 5.0925 15.411 5 15.9425 5C16.5288 5 17.0521 5.08966 17.5123 5.26898C17.9726 5.44545 18.3356 5.713 18.6014 6.07163C18.8671 6.42742 19 6.87287 19 7.40797C19 7.75237 18.9425 8.0555 18.8274 8.31736C18.7151 8.57638 18.5575 8.8055 18.3548 9.00474C18.1548 9.20114 17.9205 9.38046 17.6521 9.54269C17.4548 9.66224 17.289 9.78605 17.1548 9.91414C17.0205 10.0394 16.9192 10.1831 16.8507 10.3454C16.7822 10.5047 16.7479 10.6983 16.7479 10.926V11.1309H14.8082ZM15.811 14C15.4932 14 15.2205 13.8847 14.9932 13.6542C14.7685 13.4208 14.6575 13.1376 14.6603 12.8046C14.6575 12.4801 14.7685 12.2026 14.9932 11.972C15.2205 11.7415 15.4932 11.6262 15.811 11.6262C16.1123 11.6262 16.3781 11.7415 16.6082 11.972C16.8411 12.2026 16.9589 12.4801 16.9616 12.8046C16.9589 13.0266 16.9027 13.2287 16.7932 13.4108C16.6863 13.5901 16.5466 13.7339 16.374 13.842C16.2014 13.9473 16.0137 14 15.811 14Z" fill="white"/>
  </g>
  <defs>
    <clipPath id="clip0_2028_100402">
      <rect width="24" height="32" fill="white"/>
    </clipPath>
  </defs>
</svg>
