<svg width="18" height="18" viewBox="0 0 18 18" fill="none" xmlns="http://www.w3.org/2000/svg">
<g clip-path="url(#clip0_1544_96666)">
<path d="M13.5563 12.0094C12.8953 12.0076 12.2523 12.2253 11.7282 12.6281L6.49697 9.47813C6.52796 9.32043 6.54677 9.16058 6.55322 9C6.55004 8.83918 6.5312 8.67905 6.49697 8.52188L11.7282 5.4C12.2501 5.80697 12.8945 6.02507 13.5563 6.01875C14.1515 6.01875 14.7334 5.84226 15.2283 5.51158C15.7232 5.18091 16.1089 4.71091 16.3366 4.16102C16.5644 3.61112 16.624 3.00604 16.5079 2.42228C16.3918 1.83852 16.1052 1.3023 15.6843 0.881427C15.2634 0.460558 14.7272 0.173943 14.1434 0.0578257C13.5597 -0.0582918 12.9546 0.00130392 12.4047 0.229076C11.8548 0.456849 11.3848 0.842568 11.0541 1.33746C10.7235 1.83235 10.547 2.41418 10.547 3.00938C10.5502 3.1702 10.569 3.33033 10.6032 3.4875L5.37197 6.60938C4.85005 6.20241 4.20564 5.98431 3.54385 5.99063C3.06706 5.99515 2.59817 6.11289 2.17581 6.33416C1.75346 6.55543 1.38972 6.87389 1.11458 7.26331C0.839438 7.65272 0.660765 8.10194 0.593282 8.57395C0.525799 9.04596 0.571438 9.52724 0.726438 9.97815C0.881439 10.4291 1.14136 10.8367 1.4848 11.1674C1.82823 11.4982 2.24534 11.7426 2.70176 11.8806C3.15818 12.0185 3.64084 12.046 4.10998 11.9608C4.57912 11.8757 5.0213 11.6802 5.4001 11.3906L10.6313 14.5125C10.5988 14.6699 10.5799 14.8299 10.5751 14.9906C10.5751 15.7888 10.8922 16.5542 11.4565 17.1186C12.0209 17.6829 12.7863 18 13.5845 18C14.3826 18 15.1481 17.6829 15.7124 17.1186C16.2768 16.5542 16.5938 15.7888 16.5938 14.9906C16.576 14.1958 16.2485 13.4394 15.6812 12.8825C15.1138 12.3256 14.3514 12.0123 13.5563 12.0094Z" fill="currentColor"/>
</g>
<defs>
<clipPath id="clip0_1544_96666">
<rect width="18" height="18" fill="white"/>
</clipPath>
</defs>
</svg>
