<svg width="20" height="20" viewBox="0 0 20 20" fill="none" xmlns="http://www.w3.org/2000/svg">
<path d="M6 0H8V2H6V0Z" fill="currentColor"/>
<path d="M6 12H8V14H6V12Z" fill="currentColor"/>
<rect x="10" width="2" height="2" fill="currentColor"/>
<rect x="18" y="8" width="2" height="2" fill="currentColor"/>
<rect x="6" y="8" width="2" height="2" fill="currentColor"/>
<rect x="10" y="12" width="2" height="2" fill="currentColor"/>
<rect x="14" width="2" height="2" fill="currentColor"/>
<rect x="18" y="4" width="2" height="2" fill="currentColor"/>
<rect x="6" y="4" width="2" height="2" fill="currentColor"/>
<rect x="14" y="12" width="2" height="2" fill="currentColor"/>
<path d="M18 0H20V2H18V0Z" fill="currentColor"/>
<path d="M18 12H20V14H18V12Z" fill="currentColor"/>
<rect y="6" width="14" height="14" fill="currentColor"/>
<rect x="1" y="7" width="12" height="12" fill="white" stroke="black" stroke-width="2"/>
</svg>


