<svg width="40" height="40" viewBox="0 0 40 40" fill="none" xmlns="http://www.w3.org/2000/svg">
<path fill-rule="evenodd" clip-rule="evenodd" d="M20 38.3307C30.1252 38.3307 38.3333 30.1226 38.3333 19.9974C38.3333 9.87217 30.1252 1.66406 20 1.66406C9.87477 1.66406 1.66666 9.87217 1.66666 19.9974C1.66666 30.1226 9.87477 38.3307 20 38.3307ZM21.5278 23.0529L22.2917 9.30295H17.7083L18.4722 23.0529H21.5278ZM20 30.6918C21.2656 30.6918 22.2917 29.6658 22.2917 28.4002C22.2917 27.1345 21.2656 26.1085 20 26.1085C18.7343 26.1085 17.7083 27.1345 17.7083 28.4002C17.7083 29.6658 18.7343 30.6918 20 30.6918Z" fill="currentColor"/>
</svg>
