<svg width="40" height="40" viewBox="0 0 40 40" fill="none" xmlns="http://www.w3.org/2000/svg">
<path d="M20.0001 1.66406C9.87675 1.66406 1.66675 9.87406 1.66675 19.9974C1.66675 30.1207 9.87675 38.3307 20.0001 38.3307C30.1234 38.3307 38.3334 30.1207 38.3334 19.9974C38.3334 9.87406 30.1234 1.66406 20.0001 1.66406ZM19.1667 9.9974C19.83 9.99762 20.466 10.2613 20.9349 10.7305C21.4037 11.1996 21.667 11.8358 21.6667 12.4991C21.6665 13.1623 21.4028 13.7983 20.9337 14.2672C20.4645 14.736 19.8283 14.9993 19.1651 14.9991C18.5018 14.9988 17.8658 14.7351 17.397 14.266C16.9281 13.7968 16.6649 13.1607 16.6651 12.4974C16.6653 11.8341 16.929 11.1981 17.3981 10.7293C17.8673 10.2604 18.5035 9.99717 19.1667 9.9974V9.9974ZM25.0001 29.9974H15.0001V26.6641H18.3334V19.9974H15.0001V16.6641H21.6667V26.6641H25.0001V29.9974Z" fill="currentColor"/>
</svg>
