<svg width="12" height="17" viewBox="0 0 12 17" fill="none" xmlns="http://www.w3.org/2000/svg">
<path fill-rule="evenodd" clip-rule="evenodd" d="M2.18679 15.4504C0.824138 14.3205 0.126647 12.7 0.168263 11.0723C0.16724 11.0273 0.166726 10.9823 0.166726 10.9371C0.166726 9.78431 0.501107 8.70967 1.07816 7.80483V4.72481C1.07816 2.11537 3.28167 0 5.99984 0C8.718 0 10.9215 2.11537 10.9215 4.72481V7.80488C11.4985 8.70971 11.8329 9.78433 11.8329 10.9371C11.8329 10.982 11.8324 11.0269 11.8314 11.0716C11.8732 12.6996 11.1757 14.3203 9.81289 15.4504C7.62282 17.2666 4.37685 17.2666 2.18679 15.4504ZM5.99982 5.10396C7.13842 5.10396 8.20082 5.43018 9.09865 5.99426V4.72481C9.09865 3.08183 7.71126 1.74993 5.99982 1.74993C4.28838 1.74993 2.90099 3.08183 2.90099 4.72481V5.99426C3.79883 5.43018 4.86123 5.10396 5.99982 5.10396ZM6.00009 12.5C6.92057 12.5 7.66676 11.7538 7.66676 10.8333C7.66676 9.91286 6.92057 9.16667 6.00009 9.16667C5.07962 9.16667 4.33342 9.91286 4.33342 10.8333C4.33342 11.7538 5.07962 12.5 6.00009 12.5Z" fill="currentColor"/>
</svg>
