<svg width="22" height="22" viewBox="0 0 22 22" fill="none" xmlns="http://www.w3.org/2000/svg">
<path fill-rule="evenodd" clip-rule="evenodd" d="M12.9482 21.98H9.0519V19.3468C9.0519 19.238 8.98665 19.1398 8.88615 19.0978L6.77715 18.2158C6.6774 18.1738 6.55965 18.1955 6.4824 18.2735L4.6134 20.1418L1.85865 17.387L3.7209 15.5248C3.79815 15.4475 3.8214 15.332 3.78015 15.2308L2.9124 13.1158C2.87115 13.0145 2.77215 12.9478 2.66265 12.9478H0.0196533V9.05227H2.65365C2.7624 9.05227 2.86065 8.98702 2.90265 8.88652L3.7854 6.77752C3.8274 6.67627 3.8049 6.55927 3.7269 6.48202L1.85865 4.61302L4.6134 1.85902L6.4764 3.72052C6.5529 3.79777 6.6684 3.82102 6.76965 3.77977L8.88465 2.91202C8.9859 2.87077 9.0519 2.77177 9.0519 2.66227V0.0200195H12.9482V2.65552C12.9482 2.76427 13.0142 2.86252 13.1147 2.90452L15.2237 3.78652C15.3242 3.82852 15.4412 3.80527 15.5192 3.72802L17.3874 1.85977L20.1429 4.61452L18.2799 6.47677C18.2034 6.55327 18.1802 6.66952 18.2214 6.77002L19.0892 8.88502C19.1312 8.98627 19.2294 9.05227 19.3389 9.05227H21.9804V12.9478H19.3464C19.2377 12.9478 19.1394 13.0138 19.0974 13.1143L18.2154 15.2233C18.1727 15.3245 18.1959 15.4408 18.2732 15.5188L20.1422 17.387L17.3867 20.1418L15.5244 18.2795C15.4464 18.203 15.3309 18.1783 15.2304 18.221L13.1162 19.088C13.0149 19.13 12.9482 19.2283 12.9482 19.3378V21.98ZM10.9997 16C13.7611 16 15.9997 13.7614 15.9997 11C15.9997 8.2386 13.7611 6.00002 10.9997 6.00002C8.23824 6.00002 5.99966 8.2386 5.99966 11C5.99966 13.7614 8.23824 16 10.9997 16Z" fill="currentColor"/>
</svg>
